<?xml version="1.0" encoding="UTF-8"?>
<svg width="20px" height="20px" viewBox="0 0 20 20" version="1.1" xmlns="http://www.w3.org/2000/svg" xmlns:xlink="http://www.w3.org/1999/xlink">
    <title>预售灰</title>
    <g id="DAPP整合" stroke="none" stroke-width="1" fill="none" fill-rule="evenodd">
        <g id="点击dapp侧边栏" transform="translate(-16.000000, -412.000000)" fill-rule="nonzero">
            <g id="批量转账备份-4" transform="translate(0.000000, 400.000000)">
                <g id="预售灰" transform="translate(16.000000, 12.000000)">
                    <rect id="矩形" x="0" y="0" width="20" height="20"></rect>
                    <g id="编组" transform="translate(0.000000, 3.000000)" fill="#D9D9D9">
                        <path d="M8.84507042,0 C10.086633,1.69758172 11.4387457,3.17512623 12.8992825,4.4347595 C12.5484985,4.82062184 12.1934627,5.19372841 11.8299229,5.54132341 C10.3417486,4.9045974 8.8929046,4.08503853 7.4897688,3.08902471 C7.6521542,1.95524156 8.12074082,0.887231585 8.84507042,0" id="路径"></path>
                        <path d="M4.9045974,1.72203029 C7.130481,3.67685357 9.47541855,5.16077598 11.940473,6.16741961 C12.524079,5.62553123 13.0786645,5.05320466 13.6019134,4.45283019 C14.031358,3.9596067 14.7169811,3.47595004 15.827797,3.4142971 C16.9481796,3.3505182 17.6529365,4.18176986 17.6943928,4.2200372 L18.9083178,3.36646293 L18.8328461,4.48153069 L20,4.33271326 L18.7988307,5.65506245 C19.4138258,6.86753605 19.5250016,8.27385279 19.1081584,9.56789795 C18.4289131,11.6757906 16.6260962,14.1737975 11.9553548,14.7361148 C9.12232761,15.0776528 6.30401467,13.994115 4.42944459,11.8426787 L1.6752591,14.84135 C2.14084507,13.2203029 1.92612277,12.5442466 0,12.290194 L6.39914961,9.69651874 L6.40127558,9.69651874 L6.67446187,9.58490566 L6.68615466,9.58065373 C4.28976267,7.72398934 3.5431484,4.43060075 4.9045974,1.72203029 Z M16.2678714,5.18416157 C16.0441888,5.21112501 15.8518823,5.35537352 15.763392,5.56257008 C15.6749017,5.76976664 15.7036714,6.00843316 15.8388637,6.18866628 C15.9740561,6.3688994 16.1951321,6.46331741 16.4188148,6.43635397 C16.7645982,6.3946721 17.0111211,6.08056946 16.9694393,5.73478607 C16.9277574,5.38900269 16.6136548,5.14247971 16.2678714,5.18416157 L16.2678714,5.18416157 Z" id="形状"></path>
                    </g>
                </g>
            </g>
        </g>
    </g>
</svg>