<?xml version="1.0" encoding="UTF-8"?>
<svg width="33px" height="32px" viewBox="0 0 33 32" version="1.1" xmlns="http://www.w3.org/2000/svg" xmlns:xlink="http://www.w3.org/1999/xlink">
    <title>预售</title>
    <g id="DAPP整合" stroke="none" stroke-width="1" fill="none" fill-rule="evenodd">
        <g id="未链接钱包" transform="translate(-54.000000, -395.000000)">
            <g id="预售" transform="translate(16.000000, 376.000000)">
                <g transform="translate(38.000000, 19.000000)">
                    <rect id="矩形" x="0" y="0" width="32" height="32"></rect>
                    <g id="编组" transform="translate(0.000000, 3.000000)" fill-rule="nonzero">
                        <path d="M14.4595552,0 C16.4892104,2.77513636 18.6995882,5.19056501 21.0872134,7.24976137 C20.5137663,7.88055317 19.9333683,8.49049235 19.3390686,9.05872628 C16.9062628,8.01783293 14.5377526,6.678052 12.2439642,5.04980982 C12.5094251,3.19634802 13.2754512,1.45040949 14.4595552,0" id="路径" fill="#ABC6F6"></path>
                        <path d="M8.01783293,2.81510389 C11.6566154,6.01076812 15.4900223,8.43662308 19.5197913,10.0822424 C20.4738462,9.19638573 21.3804596,8.26076994 22.2358453,7.27930259 C22.9378835,6.47300123 24.0587119,5.68233933 25.8746277,5.58155166 C27.706183,5.47728855 28.8582903,6.83618438 28.9260613,6.89874225 L30.9105358,5.50335433 L30.7871578,7.32622099 L32.6951726,7.0829404 L30.7315508,9.24466215 C31.7369193,11.2267638 31.9186649,13.5257523 31.2372269,15.6412038 C30.1268248,19.0870995 27.1796543,23.1707378 19.5441194,24.0899909 C14.9128038,24.6483231 10.3055424,22.8770003 7.24107278,19.3599213 L2.73864428,24.262025 C3.49976496,21.6120044 3.14874583,20.5068154 0,20.0915007 L10.4610651,15.8514677 L10.4645405,15.8514677 L10.9111341,15.6690073 L10.9302491,15.6620564 C7.01272655,12.6268582 5.79219243,7.24296282 8.01783293,2.81510389 Z M26.5940432,8.47485288 C26.2283761,8.5189316 25.9140014,8.75474309 25.7693412,9.09345946 C25.6246809,9.43217582 25.6717123,9.82233798 25.8927192,10.1169756 C26.113726,10.4116133 26.4751321,10.5659639 26.8407992,10.5218852 C27.4060716,10.4537454 27.8090771,9.94026341 27.7409373,9.37499104 C27.6727975,8.80971867 27.1593155,8.40671309 26.5940432,8.47485288 L26.5940432,8.47485288 Z" id="形状" fill="#377FFC"></path>
                    </g>
                </g>
            </g>
        </g>
    </g>
</svg>